<svg id="Calque_2" data-name="Calque 2" xmlns="http://www.w3.org/2000/svg" width="270.961" height="170.615" viewBox="0 0 270.961 170.615">
  <g id="Calque_1" data-name="Calque 1">
    <path id="Tracé_5496" data-name="Tracé 5496" d="M27.878,65.86H24.785L0,113.626H12.96l3.094-6.438H36.108l3.177,6.438h13.27Zm-7.31,31.975.573-1.194a110.128,110.128,0,0,0,4.933-11.5h.2a114.764,114.764,0,0,0,4.778,11.526l.585,1.194Z" transform="translate(0 12.806)" fill="#0a2d82"/>
    <path id="Tracé_5497" data-name="Tracé 5497" d="M73.695,65.91H51v47.706H62.944V97.993h11.2c10.272,0,17.3-5.972,17.3-16.041S84.767,65.91,73.695,65.91ZM72.655,88.473H62.944V76.111h9.364c5.017,0,7.167,2.078,7.167,6.343C79.428,86.968,76.585,88.473,72.655,88.473Z" transform="translate(9.917 12.816)" fill="#0a2d82"/>
    <rect id="Rectangle_2500" data-name="Rectangle 2500" width="11.956" height="47.694" transform="translate(110.069 78.726)" fill="#0a2d82"/>
    <path id="Tracé_5498" data-name="Tracé 5498" d="M143.479,81.876c-1.421,3.094-2.926,6.354-4.682,11.108h-.167c-1.756-4.778-3.261-8.015-4.6-11.108l-7.274-15.958H113.14L137.125,115h2.508L163.7,65.87H150.837Z" transform="translate(22 12.808)" fill="#0a2d82"/>
    <rect id="Rectangle_2501" data-name="Rectangle 2501" width="11.956" height="47.694" transform="translate(197.084 78.726)" fill="#0a2d82"/>
    <path id="Tracé_5499" data-name="Tracé 5499" d="M198.8,107.19h20.079l3.177,6.438h13.294l-24.3-47.778h-3.894L182.78,113.628H195.7Zm5.1-10.523a112.741,112.741,0,0,0,4.933-11.526H209a114.741,114.741,0,0,0,4.849,11.526l.585,1.194H203.348Z" transform="translate(35.542 12.805)" fill="#0a2d82"/>
    <path id="Tracé_5500" data-name="Tracé 5500" d="M270.84,65.372C240.752,24.092,191.421,0,134.816,0S23.469,27.9.07,65.372H4.227C36.775,38.222,77.208,21.93,122.847,21.93s75.25,19,96.989,43.442Z" transform="translate(0.014)" fill="#9fd03d"/>
    <path id="Tracé_5501" data-name="Tracé 5501" d="M128.428,126.779a5.769,5.769,0,0,1,2.305,2.269,6.808,6.808,0,0,1,.86,3.488,8.911,8.911,0,0,1-1.075,4.372,8.063,8.063,0,0,1-2.926,3.046,7.9,7.9,0,0,1-4.109,1.1,5.2,5.2,0,0,1-4.778-2.174l-1.433,7.238H113.02L117,126.205h4.025l-.3,1.433a6.426,6.426,0,0,1,4.479-1.648,6.558,6.558,0,0,1,3.225.788Zm-3.2,10.153a4.133,4.133,0,0,0,1.529-1.7,5.614,5.614,0,0,0,.537-2.508,3.153,3.153,0,0,0-.884-2.389,3.38,3.38,0,0,0-2.461-.872,4.061,4.061,0,0,0-2.2.609,4.24,4.24,0,0,0-1.529,1.708,5.566,5.566,0,0,0-.538,2.5,3.153,3.153,0,0,0,.872,2.389,3.261,3.261,0,0,0,2.389.872,4.108,4.108,0,0,0,2.281-.609Z" transform="translate(21.977 24.498)" fill="#0a2d82"/>
    <path id="Tracé_5502" data-name="Tracé 5502" d="M146.923,126.209l-2.914,14.632h-4.025l.275-1.445a6.82,6.82,0,0,1-7.645.872A5.817,5.817,0,0,1,130.32,138a6.844,6.844,0,0,1-.86-3.5,8.839,8.839,0,0,1,1.075-4.36,7.883,7.883,0,0,1,7-4.145,5.2,5.2,0,0,1,4.778,2.2l.37-1.983Zm-7.621,10.75a4.133,4.133,0,0,0,1.529-1.7,5.614,5.614,0,0,0,.537-2.508,3.2,3.2,0,0,0-.884-2.389,3.38,3.38,0,0,0-2.461-.872,4.157,4.157,0,0,0-2.234.609,4.217,4.217,0,0,0-1.517,1.708,5.411,5.411,0,0,0-.585,2.556,3.165,3.165,0,0,0,.884,2.389,3.344,3.344,0,0,0,2.461.872,4.121,4.121,0,0,0,2.269-.693Z" transform="translate(25.173 24.495)" fill="#0a2d82"/>
    <path id="Tracé_5503" data-name="Tracé 5503" d="M153.351,126.444a9.675,9.675,0,0,1,3.165-.454l-.764,3.906h-.979a4.646,4.646,0,0,0-3.082.956,4.921,4.921,0,0,0-1.565,2.962l-1.433,7.023H144.44l2.914-14.632h4.025l-.358,1.744A5.614,5.614,0,0,1,153.351,126.444Z" transform="translate(28.086 24.498)" fill="#0a2d82"/>
    <path id="Tracé_5504" data-name="Tracé 5504" d="M185.286,122.48,181.5,141.52h-4.133l2.234-11.311-7.262,9.293H170.38l-3.918-9.412-2.281,11.431H160l3.81-19.04h3.583l4.778,11.861,9.293-11.861Z" transform="translate(31.112 23.816)" fill="#0a2d82"/>
    <path id="Tracé_5505" data-name="Tracé 5505" d="M198.843,126.209l-2.914,14.632H191.9l.275-1.445a6.39,6.39,0,0,1-4.491,1.66,6.5,6.5,0,0,1-3.153-.788A5.9,5.9,0,0,1,182.24,138a6.844,6.844,0,0,1-.86-3.5,8.839,8.839,0,0,1,1.075-4.36,7.9,7.9,0,0,1,2.926-3.046,7.752,7.752,0,0,1,4.073-1.1,5.172,5.172,0,0,1,4.778,2.2l.382-1.983Zm-7.621,10.75a4.049,4.049,0,0,0,1.529-1.7,5.615,5.615,0,0,0,.549-2.508,3.2,3.2,0,0,0-.884-2.389,3.4,3.4,0,0,0-2.473-.872,4.109,4.109,0,0,0-2.222.609,4.24,4.24,0,0,0-1.529,1.708,5.567,5.567,0,0,0-.538,2.5,3.118,3.118,0,0,0,.884,2.389,3.332,3.332,0,0,0,2.461.872,4.085,4.085,0,0,0,2.186-.633Z" transform="translate(35.269 24.494)" fill="#0a2d82"/>
    <path id="Tracé_5506" data-name="Tracé 5506" d="M200.09,140.24a6.092,6.092,0,0,1-2.592-2.305,6.378,6.378,0,0,1-.908-3.44,8.361,8.361,0,0,1,1.135-4.348,8.158,8.158,0,0,1,3.189-3.046,9.412,9.412,0,0,1,4.587-1.111,8.182,8.182,0,0,1,4.049.956,6.163,6.163,0,0,1,2.532,2.735l-3.583,1.8a3.332,3.332,0,0,0-3.261-1.995,4.133,4.133,0,0,0-3.8,2.317,5.387,5.387,0,0,0-.561,2.473,3.165,3.165,0,0,0,.9,2.389,3.4,3.4,0,0,0,2.508.884,4.013,4.013,0,0,0,3.583-1.959l3.118,1.959a7.238,7.238,0,0,1-2.891,2.592,9.711,9.711,0,0,1-8.015.107Z" transform="translate(38.227 24.498)" fill="#0a2d82"/>
    <path id="Tracé_5507" data-name="Tracé 5507" d="M212.274,127.274h4.216l-2.914,14.632H209.36Zm1.039-2.676a2.09,2.09,0,0,1-.693-1.565,2.389,2.389,0,0,1,.776-1.816,2.867,2.867,0,0,1,2.031-.717,2.64,2.64,0,0,1,1.863.6,1.911,1.911,0,0,1,.693,1.505,2.46,2.46,0,0,1-.788,1.9,2.914,2.914,0,0,1-2.043.717,2.58,2.58,0,0,1-1.839-.621Z" transform="translate(40.71 23.43)" fill="#0a2d82"/>
    <path id="Tracé_5508" data-name="Tracé 5508" d="M224.055,125.223a3,3,0,0,0-.776,1.672l-.108.537H226.9l-.657,3.261h-3.583l-2.2,11.049h-4.24l2.2-11.049H216.1l.657-3.261h2.281l.167-.848a6.761,6.761,0,0,1,2.126-3.846,6.271,6.271,0,0,1,4.228-1.4,7.81,7.81,0,0,1,1.863.215,5.362,5.362,0,0,1,1.517.6l-1.66,3.046a2.771,2.771,0,0,0-1.684-.514A2.126,2.126,0,0,0,224.055,125.223Z" transform="translate(42.021 23.594)" fill="#0a2d82"/>
  </g>
</svg>
