<svg xmlns="http://www.w3.org/2000/svg" width="425.09" height="113.282" viewBox="0 0 425.09 113.282">
  <g id="Groupe_7696" data-name="Groupe 7696" transform="translate(-11.328 -11.328)">
    <path id="Tracé_5524" data-name="Tracé 5524" d="M4,4H117.282V117.282H4Z" transform="translate(7.328 7.328)" fill="#2a6654"/>
    <path id="Tracé_5525" data-name="Tracé 5525" d="M61.076,27.2l21.807,7.647A22.893,22.893,0,0,0,86,27.2H61.076ZM79.485,39.944,54,27.2,71.838,47.024A90.524,90.524,0,0,0,79.485,39.944ZM50.031,27.2l4.814,27.188a90.355,90.355,0,0,0,9.346-3.115L50.031,27.2ZM45.783,55.8l1.7-28.6L34.738,54.954a43.224,43.224,0,0,0,8.5.85ZM25.676,51.839,44.084,27.2,16.047,44.192A28.823,28.823,0,0,0,25.676,51.839ZM10.666,27.2A21.535,21.535,0,0,0,11.8,36.829L38.7,27.2H10.666Z" transform="translate(19.354 49.832)" fill="#c4d600"/>
    <path id="Tracé_5526" data-name="Tracé 5526" d="M19.1,36.143l1.982-4.248h7.93l2.549,4.248Zm17.275-2.549,3.4-4.248H47.7l3.4,4.248Zm-7.08-1.7L33.26,20l3.965,11.895Z" transform="translate(34.992 36.641)" fill="#fff"/>
    <path id="Tracé_5527" data-name="Tracé 5527" d="M84.35,10.659a138.943,138.943,0,0,0-15.576-.283,65.075,65.075,0,0,0-37.949,14.16C20.629,32.749,13.549,42.661,11,53.989h.566C16.381,38.7,30.258,26.8,50.082,23.4a72.035,72.035,0,0,1,20.674.566L84.35,10.659Z" transform="translate(20.152 18.794)" fill="#cb521c"/>
    <path id="Tracé_5528" data-name="Tracé 5528" d="M322.378,51.217c-3.965,0-6.23-1.416-6.23-3.965s1.982-3.682,5.947-3.965l8.779-.566v7.647a35.192,35.192,0,0,1-8.5.85m2.549-24.639a67.238,67.238,0,0,0-12.461,1.416l.85,5.947a69.466,69.466,0,0,1,11.045-1.133c4.248,0,6.514,1.7,6.514,5.1v.283l-8.213.566c-8.779.283-12.744,3.4-12.744,9.063,0,6.23,3.965,9.629,11.045,9.629,3.682,0,6.514,0,16.709-1.416V37.906c-.283-7.93-4.248-11.328-12.744-11.328m-31.719,0A39.148,39.148,0,0,0,281.03,28.56c-1.982-1.416-4.814-1.982-7.93-1.982a77.149,77.149,0,0,0-14.727,1.416V55.748h6.8V33.091a50.557,50.557,0,0,1,6.514-.566c4.531,0,6.514,1.982,6.514,6.514V55.465h7.08V37.056a12.57,12.57,0,0,0-.566-3.682,27.931,27.931,0,0,1,6.8-.85c4.531,0,6.514,2.266,6.514,6.8V55.748h6.8V37.623c.283-7.647-4.531-11.045-11.611-11.045M237.133,51.217c-3.965,0-6.23-1.416-6.23-3.965s1.982-3.682,5.947-3.965l8.779-.566v7.647a37.671,37.671,0,0,1-8.5.85m2.549-24.639a67.238,67.238,0,0,0-12.461,1.416l.85,5.947a69.465,69.465,0,0,1,11.045-1.133c4.248,0,6.514,1.7,6.514,5.1v.283l-8.213.566c-8.779.283-12.744,3.4-12.744,9.063,0,6.23,3.965,9.629,11.045,9.629,3.682,0,6.514,0,16.709-1.416V37.906c-.283-7.93-4.248-11.328-12.744-11.328M206.264,50.367a49.239,49.239,0,0,1-8.213-.566V32.808a60.324,60.324,0,0,1,7.647-.566c6.23,0,8.5,3.965,8.5,9.346,0,5.1-3.115,8.779-7.93,8.779m.566-23.789a104.971,104.971,0,0,0-15.576,1.416V67.359h6.8V55.748a55.141,55.141,0,0,0,9.063.566c8.213,0,13.877-5.947,13.877-14.727,0-9.063-5.1-15.01-14.16-15.01m-22.373,1.133h-7.08V50.65c-2.832.283-5.381.566-7.93.566-4.248,0-6.514-2.266-6.514-6.8V27.711h-6.8V46.119c0,7.93,4.814,11.045,11.895,11.045a114.346,114.346,0,0,0,16.426-1.416V27.711ZM135.746,50.933a8.622,8.622,0,0,1-9.063-9.063,8.622,8.622,0,0,1,9.063-9.063c5.381,0,8.779,3.682,8.779,9.063s-3.682,9.063-8.779,9.063m0-24.639c-9.629,0-15.859,6.23-15.859,15.293,0,9.346,6.514,15.576,15.859,15.576s15.859-6.23,15.859-15.576c0-9.063-6.514-15.293-15.859-15.293m-17.275.283a118.985,118.985,0,0,0-17.559,1.7V55.748h6.8V33.658c3.4-.283,6.8-.283,10.479-.283l.283-6.8ZM94.965,32.525H73.441v6.8H88.168V48.1a44.671,44.671,0,0,1-11.895,1.7c-8.5,0-14.16-5.664-14.16-14.443,0-8.5,6.23-14.16,15.859-14.16A73.827,73.827,0,0,1,90.15,22.9L91,16.1a68.387,68.387,0,0,0-14.16-1.7c-13.594,0-22.94,8.5-22.94,21.24,0,13.027,8.779,21.524,21.807,21.524,5.947,0,12.178-1.7,18.975-4.531l.283-20.108Z" transform="translate(98.747 26.381)" fill="#2a6654"/>
  </g>
</svg>
