<svg id="macif-logo" xmlns="http://www.w3.org/2000/svg" width="239.324" height="239.324" viewBox="0 0 239.324 239.324">
  <g id="Groupe_7660" data-name="Groupe 7660" transform="translate(0 0)">
    <g id="Groupe_7659" data-name="Groupe 7659">
      <path id="Tracé_5488" data-name="Tracé 5488" d="M119.662,239.324A436.393,436.393,0,0,1,4.074,224.048L0,223.03V16.294l3.564-1.018a446.875,446.875,0,0,1,231.686,0l4.074,1.018V223.03l-3.564,1.018A445.846,445.846,0,0,1,119.662,239.324Z" transform="translate(0 0)" fill="#fff"/>
      <path id="Tracé_5489" data-name="Tracé 5489" d="M230.14,16.176v199.1A447.249,447.249,0,0,1,115.57,230.04,444.339,444.339,0,0,1,1,215.274V16.176A447.419,447.419,0,0,1,115.57.9,471.019,471.019,0,0,1,230.14,16.176" transform="translate(4.092 3.683)" fill="#0a2d82"/>
      <path id="Tracé_5490" data-name="Tracé 5490" d="M65.028,35.414A22.914,22.914,0,1,1,42.114,12.5,23.147,23.147,0,0,1,65.028,35.414" transform="translate(78.567 51.15)" fill="#d3d62e"/>
      <path id="Tracé_5491" data-name="Tracé 5491" d="M118.4,59.966H104.147c-1.018.509-2.546,1.018-2.546,2.546A34.659,34.659,0,1,1,63.92,25.85h0a3.286,3.286,0,0,0,3.055-3.055V9.555q0-3.055-3.055-3.055h0a54.02,54.02,0,0,0,3.055,107.951c28.515,0,52.448-22.914,53.975-50.92,0-2.037-1.018-3.564-2.546-3.564" transform="translate(53.196 26.598)" fill="#d3d62e"/>
      <path id="Tracé_5492" data-name="Tracé 5492" d="M36.643,59.306V51.668h0c-1.018,1.528-2.546,2.546-4.074,4.583l-5.6,5.6h-.509l-5.6-5.6a29.222,29.222,0,0,1-4.074-4.583h0V73.054H6.6V31.3H7.618l11.2,10.184a54.01,54.01,0,0,1,7.638,7.638h0a104.859,104.859,0,0,1,8.147-7.638L45.3,31.809h1.018V73.564H36.134V59.306Z" transform="translate(27.007 128.08)" fill="#fff"/>
      <path id="Tracé_5493" data-name="Tracé 5493" d="M32.313,59.306h9.675l-.509-1.018c-1.018-2.546-2.546-5.6-4.074-9.675h0c-1.528,4.074-3.055,7.129-4.074,9.675Zm13.239,8.147h-16.8l-2.546,5.6H15L36.386,31.3h2.037L59.81,73.054h-11.2Z" transform="translate(61.38 128.08)" fill="#fff"/>
      <path id="Tracé_5494" data-name="Tracé 5494" d="M59.444,68.572c-4.074,3.055-8.147,5.6-14.258,5.6-12.73,0-21.386-9.166-21.386-21.386,0-12.73,9.166-21.386,20.877-21.386A21.247,21.247,0,0,1,59.444,37l-5.6,7.129A10.751,10.751,0,0,0,45.7,41.075C39.076,41.075,35,46.676,35,53.3c0,7.129,4.074,12.221,11.2,12.221a11.564,11.564,0,0,0,8.147-3.055Z" transform="translate(97.39 128.489)" fill="#fff"/>
      <rect id="Rectangle_2489" data-name="Rectangle 2489" width="10.184" height="40.736" transform="translate(161.926 160.398)" fill="#fff"/>
      <path id="Tracé_5495" data-name="Tracé 5495" d="M45.584,40.666V50.34H60.86V59H45.584V72.236H35.4V31.5H65.443l-2.037,9.166Z" transform="translate(144.857 128.898)" fill="#fff"/>
    </g>
  </g>
</svg>
